<svg width="24" height="25" viewBox="0 0 24 25" fill="none" xmlns="http://www.w3.org/2000/svg">
<path d="M19.7083 7.79196C19.8014 7.88485 19.8753 7.9952 19.9257 8.11669C19.9761 8.23818 20.0021 8.36842 20.0021 8.49996C20.0021 8.63149 19.9761 8.76173 19.9257 8.88322C19.8753 9.00471 19.8014 9.11507 19.7083 9.20796L10.7083 18.208C10.6154 18.3011 10.505 18.375 10.3836 18.4254C10.2621 18.4758 10.1318 18.5017 10.0003 18.5017C9.86875 18.5017 9.73851 18.4758 9.61702 18.4254C9.49553 18.375 9.38518 18.3011 9.29229 18.208L5.29229 14.208C5.10451 14.0202 4.99902 13.7655 4.99902 13.5C4.99902 13.2344 5.10451 12.9797 5.29229 12.792C5.48006 12.6042 5.73474 12.4987 6.00029 12.4987C6.26584 12.4987 6.52051 12.6042 6.70829 12.792L10.0003 16.086L18.2923 7.79196C18.3852 7.69883 18.4955 7.62494 18.617 7.57453C18.7385 7.52412 18.8688 7.49817 19.0003 7.49817C19.1318 7.49817 19.2621 7.52412 19.3836 7.57453C19.505 7.62494 19.6154 7.69883 19.7083 7.79196Z" fill="white"/>
</svg>
